<?xml version="1.0" encoding="utf-8"?>
<!-- Generator: Adobe Illustrator 16.0.0, SVG Export Plug-In . SVG Version: 6.00 Build 0)  -->
<!DOCTYPE svg PUBLIC "-//W3C//DTD SVG 1.1//EN" "http://www.w3.org/Graphics/SVG/1.1/DTD/svg11.dtd">
<svg version="1.1" id="Layer_1" xmlns="http://www.w3.org/2000/svg" xmlns:xlink="http://www.w3.org/1999/xlink" x="0px" y="0px"
	 width="226.413px" height="66px" viewBox="0 0 226.413 66" enable-background="new 0 0 226.413 66" xml:space="preserve">
<polyline fill="#00788A" points="14.288,46.188 26.851,46.188 29.915,35.24 10.589,35.24 14.288,46.188 "/>
<polyline fill="#00788A" points="45.245,46.188 58.218,46.188 61.577,35.24 42.124,35.24 45.245,46.188 "/>
<path fill="#00788A" d="M89.585,48.323c0,4.516-2.71,7.555-7.144,7.555c-2.709,0-4.27-0.246-5.666-0.739l-0.739,8.129
	c2.545,0.739,5.173,1.149,7.801,1.149c11.495,0,14.041-9.196,17.572-18.558l4.011-10.619h-20.6L89.585,48.323"/>
<rect x="120.376" y="35.24" fill="#00788A" width="11.003" height="10.948"/>
<rect x="171.453" y="35.24" fill="#00788A" width="11.002" height="10.948"/>
<rect x="145.915" y="35.24" fill="#00788A" width="11.002" height="10.948"/>
<path fill="#00788A" d="M211.111,35.35c-1.725,2.299-4.353,3.778-7.718,3.778c-3.438,0-6.188-1.188-6.835-3.888h-10.639
	c0.372,7.652,7.488,11.934,14.763,11.934c5.009,0,10.511-2.628,13.057-7.308h0.164c0.082,1.313,0.082,4.105,0.492,6.322h9.689
	c-0.248-3.284-0.412-6.24-0.494-9.443c-0.014-0.498-0.026-0.998-0.039-1.505H211.19C211.163,35.276,211.137,35.313,211.111,35.35"/>
<path fill="#39B44A" d="M217.437,1.551v0.715c0,0,0.863,0,1.01,0c0,0.166,0,2.718,0,2.718h0.751c0,0,0-2.552,0-2.718
	c0.149,0,1.027,0,1.027,0V1.551H217.437"/>
<path fill="#39B44A" d="M223.145,1.551l-0.807,2.143l-0.803-2.143h-0.68l-0.594,3.433h0.77c0,0,0.25-1.412,0.33-1.87
	c0.167,0.444,0.708,1.87,0.708,1.87h0.534c0,0,0.541-1.426,0.707-1.87c0.081,0.458,0.33,1.87,0.33,1.87h0.774l-0.599-3.433H223.145"
	/>
<path fill="#39B44A" d="M53.228,30.44h9.822L71.193,3.9H60.682L53.228,30.44 M29.726,3.9L22.48,30.44h8.778l4.625-16.523h0.165
	l4.708,16.523h9.58L42.534,3.9H29.726z M73.408,3.9l9.665,26.541h11.241L85.562,3.9H73.408z M0,3.9L8.967,30.44h10.635L11.66,3.9H0z
	 M97.337,30.44l9.896,0L117.257,3.9H106.09L97.337,30.44z M223.455,30.441c-0.018-1.322-0.029-2.73-0.029-4.288v-5.42
	c0-12.481-5.335-17.818-18.227-17.818c-4.681,0-10.428,1.231-14.698,3.202l0.329,9.443c3.695-2.792,8.375-4.598,13.055-4.598
	c6.488,0,9.526,2.299,9.526,9.114h-6.077c-4.599,0-10.017,0.41-14.206,2.463c-3.164,1.551-5.668,4.046-6.704,7.901h10.963
	c2.146-3.291,7.424-3.795,11.261-3.795h4.764c0,1.314-0.085,2.587-0.295,3.795H223.455z M169.07,2.915
	c-5.173,0-10.674,2.38-13.219,7.473c-2.383-5.256-6.57-7.473-12.482-7.473c-4.105,0-9.114,1.724-12.563,6.897h-0.164V3.9h-10.265
	v26.541h11.003V25.66c0-5.502,0.903-14.206,8.212-14.206c6.323,0,6.323,5.583,6.323,9.524v9.462h11.002v-4.78
	c0-5.503,0.903-14.206,8.212-14.206c6.324,0,6.324,5.583,6.324,9.524v9.462h11.002V19.501
	C182.455,10.059,179.499,2.915,169.07,2.915z"/>
</svg>
